<svg xmlns="http://www.w3.org/2000/svg" viewBox="0 0 79.67 80"><defs><style>.cls-1{fill:#00b2e2;}</style></defs><title>Asset 1</title><g id="Layer_2" data-name="Layer 2"><g id="Layer_1-2" data-name="Layer 1"><path class="cls-1" d="M65,31.47H78.92A40.11,40.11,0,0,0,39.8,0l4.85,13.9A26.6,26.6,0,0,1,65,31.47Z"/><path class="cls-1" d="M24.49,4.86l.31.78A37.49,37.49,0,0,0,3.31,31.47h1A36.43,36.43,0,0,1,22.55,7.87l.37.75A35.58,35.58,0,0,0,5.22,31.47h1A34.52,34.52,0,0,1,21.06,10.9l.43.72A33.68,33.68,0,0,0,7.14,31.47h1A32.61,32.61,0,0,1,19.46,14.32L20,15A31.77,31.77,0,0,0,9.05,31.47h1.06a30.71,30.71,0,0,1,8.32-13.78l.56.63a29.87,29.87,0,0,0-8,13.15H12a28.85,28.85,0,0,1,5.71-10.37l.61.57a28,28,0,0,0-5.45,9.8h1.75a26.6,26.6,0,0,1,20.2-17.54L39.8,0A40.12,40.12,0,0,0,.72,31.47H2.45A38.33,38.33,0,0,1,24.49,4.86Z"/><path class="cls-1" d="M14.66,48.53H.72A40,40,0,0,0,39.79,80L34.94,66.09A26.6,26.6,0,0,1,14.66,48.53Z"/><path class="cls-1" d="M55.15,75.14l-.31-.78A37.49,37.49,0,0,0,76.33,48.53h-1a36.43,36.43,0,0,1-18.19,23.6l-.37-.75a35.58,35.58,0,0,0,17.7-22.85h-1A34.52,34.52,0,0,1,58.58,69.1l-.43-.72A33.68,33.68,0,0,0,72.51,48.53h-1A32.61,32.61,0,0,1,60.18,65.68l-.5-.68a31.77,31.77,0,0,0,10.9-16.47H69.53a30.71,30.71,0,0,1-8.32,13.78l-.56-.63a29.87,29.87,0,0,0,8-13.15H67.61a28.85,28.85,0,0,1-5.71,10.37l-.61-.57a28,28,0,0,0,5.45-9.8H65A26.6,26.6,0,0,1,44.57,66.12L39.79,80h0a40,40,0,0,0,39.1-31.47H77.19A38.33,38.33,0,0,1,55.15,75.14Z"/><path class="cls-1" d="M39.72,0"/><path class="cls-1" d="M34.86,13.92,28.8,31.3v.18a13.95,13.95,0,0,1,21.77-.35L44.64,13.9a26.55,26.55,0,0,0-9.78,0Z"/><path class="cls-1" d="M44.57,66.12l5.86-17a13.94,13.94,0,0,1-21.58-.45l6.09,17.46a26.53,26.53,0,0,0,9.63,0Z"/><polygon class="cls-1" points="39.79 80 39.79 80 39.79 80 39.79 80"/><path d="M4.2,41.54c0-.35.36-1.92.61-3.11l.63-2.82H8.06l.79,3.46a24.94,24.94,0,0,1,.38,2.47h.06c.05-.56.26-1.87.38-2.4l.43-1.91H9.4V35.61H13v1.63H12.3l-1.87,7.14h-3l-.75-3c-.11-.43-.25-1.17-.31-1.56H6.34c-.05.38-.21,1.17-.3,1.53l-.77,3H2.36L.7,37.24H0V35.61H4.14v1.63H3.41l.33,1.83c.14.6.35,2.1.4,2.47Z"/><path d="M21.13,35.61v2.77H19V37.26H17V39h2.38v1.67H17v2h2V41.54h2.17v2.84H13.56V42.71h.79V37.26h-.79V35.61Z"/><path d="M21.7,41.22H24c0,1.05,1.05,1.23,1.58,1.25s1.07-.1,1.07-.63c0-1-4.82-.56-4.82-3.76a2.86,2.86,0,0,1,3-2.7,2.81,2.81,0,0,1,2.62,1.28l.13-1.05h2.16v3.15H27.48a1.47,1.47,0,0,0-1.61-1.46c-.36,0-.87.23-.87.67,0,1.29,5,1,5,3.94,0,2-1.83,2.66-3.33,2.66A3.38,3.38,0,0,1,24,43.41l-.14,1H21.7Z"/><path d="M39,38.87H37.13V37.26H36.08v5.45h1v1.67H32.45V42.71h1V37.26H32.4v1.61H30.56V35.61H39Z"/><path d="M39.55,41.22h2.33c0,1.05,1.05,1.23,1.58,1.25s1.07-.1,1.07-.63c0-1-4.82-.56-4.82-3.76a2.86,2.86,0,0,1,3-2.7,2.81,2.81,0,0,1,2.62,1.28l.13-1.05h2.16v3.15H45.34a1.47,1.47,0,0,0-1.61-1.46c-.36,0-.87.23-.87.67,0,1.29,5,1,5,3.94,0,2-1.83,2.66-3.33,2.66a3.38,3.38,0,0,1-2.62-1.15l-.14,1h-2.2Z"/><path d="M56.61,38.87H54.76V37.26H53.71v5.45h1v1.67H50.08V42.71h1V37.26H50v1.61H48.19V35.61h8.42Z"/><path d="M64.75,35.61v2.77H62.58V37.26h-2V39H63v1.67H60.57v2h2V41.54h2.17v2.84H57.18V42.71H58V37.26h-.79V35.61Z"/><path d="M69.49,35.61v1.66h-.78v5.45h.78v1.67H65.33V42.71h.79V37.26h-.79V35.61Z"/><path d="M78.84,37.23v7.15h-2.7l-3.2-4.78v3.16h1v1.62H70.06V42.76h.74V37.23h-.73V35.61h3.6l3.07,4.61v-3h-.85V35.61h3.78v1.62Z"/></g></g></svg>